<?xml version="1.0" standalone="no"?>
<!DOCTYPE svg PUBLIC "-//W3C//DTD SVG 20010904//EN"
 "http://www.w3.org/TR/2001/REC-SVG-20010904/DTD/svg10.dtd">
<svg version="1.0" xmlns="http://www.w3.org/2000/svg"
 width="1332.000000pt" height="1332.000000pt" viewBox="0 0 1332.000000 1332.000000"
 preserveAspectRatio="xMidYMid meet" fill="#FFFFFF">
<g color="white" transform="translate(0.000000,1332.000000) scale(0.100000,-0.100000)"
fill="#000000" stroke="none">
<path stroke="white" fill="white" color="white" d="M6360 12734 c-862 -61 -1598 -254 -2335 -614 -1619 -791 -2816 -2265
-3255 -4009 -72 -288 -120 -561 -156 -891 -21 -194 -30 -806 -15 -1022 96
-1371 624 -2629 1536 -3663 136 -154 414 -426 580 -569 894 -767 1993 -1267
3135 -1425 322 -45 482 -55 855 -55 445 -1 696 20 1095 90 1747 307 3307 1396
4209 2939 714 1219 981 2635 765 4045 -192 1253 -779 2421 -1674 3334 -286
291 -524 496 -838 719 -876 623 -1859 989 -2964 1103 -146 15 -801 27 -938 18z
m745 -1345 c2169 -177 3967 -1821 4335 -3964 79 -459 91 -959 34 -1405 -101
-796 -404 -1564 -871 -2207 -277 -382 -651 -762 -1028 -1045 -727 -544 -1598
-870 -2517 -939 -201 -15 -673 -6 -863 16 -866 101 -1668 420 -2348 932 -364
274 -713 625 -982 988 -515 691 -824 1492 -921 2380 -21 195 -24 697 -6 880
66 641 213 1161 481 1702 876 1767 2733 2822 4686 2662z"/>
<path stroke="#51B289" fill="#51B289" color="#51B289" d="M4719 10316 c-126 -35 -255 -143 -312 -260 -60 -122 -70 -267 -27
-391 26 -74 1354 -2375 1405 -2433 52 -60 143 -117 223 -142 76 -24 211 -27
287 -6 157 42 292 167 345 320 39 115 35 260 -10 362 -40 92 -1356 2358 -1394
2401 -53 61 -144 118 -224 143 -75 23 -219 26 -293 6z"/>
</g>
</svg>
