<?xml version="1.0" standalone="no"?>
<!DOCTYPE svg PUBLIC "-//W3C//DTD SVG 20010904//EN"
 "http://www.w3.org/TR/2001/REC-SVG-20010904/DTD/svg10.dtd">
<svg version="1.0" xmlns="http://www.w3.org/2000/svg"
 width="474.000000pt" height="474.000000pt" viewBox="0 0 474.000000 474.000000"
 preserveAspectRatio="xMidYMid meet">

<g transform="translate(0.000000,474.000000) scale(0.100000,-0.100000)"
fill="#000000" stroke="none">
<path d="M2060 4640 c-245 -35 -437 -90 -645 -186 -547 -251 -976 -711 -1183
-1269 -144 -389 -180 -808 -106 -1220 135 -747 658 -1390 1369 -1684 62 -26
87 -35 165 -61 380 -125 837 -143 1225 -50 412 100 757 288 1056 577 370 357
599 804 675 1318 25 163 25 474 0 640 -72 490 -278 909 -620 1263 -282 291
-615 492 -1006 606 -283 82 -639 108 -930 66z m533 -545 c527 -78 966 -366
1241 -814 175 -284 251 -563 250 -906 -2 -282 -49 -489 -167 -735 -323 -671
-1049 -1065 -1777 -964 -406 56 -738 226 -1026 527 -253 263 -408 581 -459
942 -17 119 -19 325 -4 450 38 314 170 624 370 871 217 267 501 461 834 569
209 68 515 93 738 60z"/>
</g>
</svg>
