<?xml version="1.0" standalone="no"?>
<!DOCTYPE svg PUBLIC "-//W3C//DTD SVG 20010904//EN"
 "http://www.w3.org/TR/2001/REC-SVG-20010904/DTD/svg10.dtd">
<svg version="1.0" xmlns="http://www.w3.org/2000/svg"
 width="1332.000000pt" height="1332.000000pt" viewBox="0 0 1332.000000 1332.000000"
 preserveAspectRatio="xMidYMid meet">

<g transform="translate(0.000000,1332.000000) scale(0.100000,-0.100000)"
fill="#000000" stroke="none">
<path d="M6360 12734 c-862 -61 -1598 -254 -2335 -614 -1619 -791 -2816 -2265
-3255 -4009 -72 -288 -120 -561 -156 -891 -21 -194 -30 -806 -15 -1022 96
-1371 624 -2629 1536 -3663 136 -154 414 -426 580 -569 894 -767 1993 -1267
3135 -1425 322 -45 482 -55 855 -55 445 -1 696 20 1095 90 1747 307 3307 1396
4209 2939 714 1219 981 2635 765 4045 -192 1253 -779 2421 -1674 3334 -286
291 -524 496 -838 719 -876 623 -1859 989 -2964 1103 -146 15 -801 27 -938 18z
m575 -1334 c453 -23 871 -100 1282 -236 1441 -476 2577 -1613 3054 -3056 269
-812 312 -1720 123 -2553 -343 -1506 -1395 -2760 -2825 -3366 -395 -167 -872
-291 -1324 -344 -190 -22 -675 -31 -875 -16 -1037 80 -1987 472 -2776 1148
-143 122 -438 420 -553 558 -668 806 -1044 1751 -1111 2790 -86 1356 427 2704
1400 3675 812 811 1874 1302 3005 1390 127 10 176 12 345 18 30 1 145 -3 255
-8z"/>
</g>
</svg>
